# xmcd
#
# Track frame offsets: 
#        150
#        19395
#        44000
#        64621
#        85092
#        101103
#        114569
#        130817
#        147560
#        160673
#        174863
#        195569
#
# Disc length: 2855 seconds
#
# Revision: 0
# Processed by: cddbd v1.5.2PL0 Copyright (c) Steve Scherf et al.
# Submitted via: ExactAudioCopyFreeDBPlugin 1.0
#
DISCID=a30b250c
DTITLE=Matt Anderson - Weightless
DYEAR=2014
DGENRE=Blues
TTITLE0=I lost my way
TTITLE1=My last day
TTITLE2=So Easy
TTITLE3=Weightless
TTITLE4=Alberta Gold
TTITLE5=Let´s go to bed
TTITLE6=The fight
TTITLE7=Drift away
TTITLE8=Let you down
TTITLE9=City of dreams
TTITLE10=Between the lines
TTITLE11=What will you leave
EXTD=
EXTT0=
EXTT1=
EXTT2=
EXTT3=
EXTT4=
EXTT5=
EXTT6=
EXTT7=
EXTT8=
EXTT9=
EXTT10=
EXTT11=
PLAYORDER=
